%FSLAX25Y25*%
%MOIN*%
G70*
G01*
G75*
G04 Layer_Physical_Order=2*
G04 Layer_Color=16711680*
%ADD10R,0.05512X0.11811*%
%ADD11R,0.09449X0.03937*%
%ADD12R,0.04331X0.06693*%
%ADD13R,0.03937X0.05906*%
%ADD14O,0.08661X0.02362*%
%ADD15R,0.06693X0.04331*%
%ADD16C,0.01500*%
%ADD17C,0.03000*%
%ADD18C,0.01000*%
%ADD19C,0.05906*%
%ADD20R,0.05906X0.05906*%
%ADD21R,0.05906X0.05906*%
%ADD22C,0.03000*%
%ADD23C,0.05000*%
G36*
X139378Y2622D02*
X3122D01*
Y5000D01*
X3122Y5000D01*
X3122Y5000D01*
Y5000D01*
Y72106D01*
X3619Y72155D01*
X3645Y72025D01*
X4198Y71198D01*
X5024Y70645D01*
X5500Y70551D01*
Y73000D01*
Y75450D01*
X5024Y75355D01*
X4198Y74802D01*
X3645Y73975D01*
X3619Y73845D01*
X3122Y73894D01*
Y82378D01*
X139378D01*
Y2622D01*
D02*
G37*
%LPC*%
G36*
X132000Y22000D02*
X128579D01*
X128649Y21468D01*
X129047Y20507D01*
X129681Y19681D01*
X130507Y19047D01*
X131468Y18649D01*
X132000Y18579D01*
Y22000D01*
D02*
G37*
G36*
X136421D02*
X133000D01*
Y18579D01*
X133532Y18649D01*
X134493Y19047D01*
X135319Y19681D01*
X135953Y20507D01*
X136351Y21468D01*
X136421Y22000D01*
D02*
G37*
G36*
X27000Y26083D02*
X26073Y25961D01*
X25208Y25603D01*
X24466Y25034D01*
X23897Y24292D01*
X23539Y23427D01*
X23417Y22500D01*
X23539Y21573D01*
X23897Y20708D01*
X24466Y19966D01*
X25208Y19397D01*
X26073Y19039D01*
X27000Y18917D01*
X27927Y19039D01*
X28792Y19397D01*
X29534Y19966D01*
X30103Y20708D01*
X30461Y21573D01*
X30583Y22500D01*
X30461Y23427D01*
X30103Y24292D01*
X29534Y25034D01*
X28792Y25603D01*
X27927Y25961D01*
X27000Y26083D01*
D02*
G37*
G36*
X101464Y20500D02*
X98500D01*
Y17536D01*
X98914Y17590D01*
X99765Y17943D01*
X100496Y18504D01*
X101057Y19235D01*
X101410Y20086D01*
X101464Y20500D01*
D02*
G37*
G36*
X97500D02*
X94536D01*
X94590Y20086D01*
X94943Y19235D01*
X95504Y18504D01*
X96235Y17943D01*
X97086Y17590D01*
X97500Y17536D01*
Y20500D01*
D02*
G37*
G36*
X13421Y22000D02*
X10000D01*
Y18579D01*
X10532Y18649D01*
X11493Y19047D01*
X12319Y19681D01*
X12953Y20507D01*
X13351Y21468D01*
X13421Y22000D01*
D02*
G37*
G36*
X9000D02*
X5579D01*
X5649Y21468D01*
X6047Y20507D01*
X6681Y19681D01*
X7507Y19047D01*
X8468Y18649D01*
X9000Y18579D01*
Y22000D01*
D02*
G37*
G36*
X132000Y26421D02*
X131468Y26351D01*
X130507Y25953D01*
X129681Y25319D01*
X129047Y24493D01*
X128649Y23532D01*
X128579Y23000D01*
X132000D01*
Y26421D01*
D02*
G37*
G36*
X133000D02*
Y23000D01*
X136421D01*
X136351Y23532D01*
X135953Y24493D01*
X135319Y25319D01*
X134493Y25953D01*
X133532Y26351D01*
X133000Y26421D01*
D02*
G37*
G36*
X136053Y36053D02*
X128947D01*
Y28947D01*
X136053D01*
Y36053D01*
D02*
G37*
G36*
X10000Y26421D02*
Y23000D01*
X13421D01*
X13351Y23532D01*
X12953Y24493D01*
X12319Y25319D01*
X11493Y25953D01*
X10532Y26351D01*
X10000Y26421D01*
D02*
G37*
G36*
X97500Y24464D02*
X97086Y24410D01*
X96235Y24057D01*
X95504Y23496D01*
X94943Y22765D01*
X94590Y21914D01*
X94536Y21500D01*
X97500D01*
Y24464D01*
D02*
G37*
G36*
X98500D02*
Y21500D01*
X101464D01*
X101410Y21914D01*
X101057Y22765D01*
X100496Y23496D01*
X99765Y24057D01*
X98914Y24410D01*
X98500Y24464D01*
D02*
G37*
G36*
X9000Y26421D02*
X8468Y26351D01*
X7507Y25953D01*
X6681Y25319D01*
X6047Y24493D01*
X5649Y23532D01*
X5579Y23000D01*
X9000D01*
Y26421D01*
D02*
G37*
G36*
X132000Y12000D02*
X128579D01*
X128649Y11468D01*
X129047Y10507D01*
X129681Y9681D01*
X130507Y9047D01*
X131468Y8649D01*
X132000Y8579D01*
Y12000D01*
D02*
G37*
G36*
X136421D02*
X133000D01*
Y8579D01*
X133532Y8649D01*
X134493Y9047D01*
X135319Y9681D01*
X135953Y10507D01*
X136351Y11468D01*
X136421Y12000D01*
D02*
G37*
G36*
X13053Y16053D02*
X5947D01*
Y8947D01*
X13053D01*
Y16053D01*
D02*
G37*
G36*
X75964Y11500D02*
X73000D01*
Y8536D01*
X73414Y8590D01*
X74265Y8943D01*
X74996Y9504D01*
X75557Y10235D01*
X75910Y11086D01*
X75964Y11500D01*
D02*
G37*
G36*
X45500D02*
X42536D01*
X42590Y11086D01*
X42943Y10235D01*
X43504Y9504D01*
X44235Y8943D01*
X45086Y8590D01*
X45500Y8536D01*
Y11500D01*
D02*
G37*
G36*
X49464D02*
X46500D01*
Y8536D01*
X46914Y8590D01*
X47765Y8943D01*
X48496Y9504D01*
X49057Y10235D01*
X49410Y11086D01*
X49464Y11500D01*
D02*
G37*
G36*
X72000D02*
X69036D01*
X69090Y11086D01*
X69443Y10235D01*
X70004Y9504D01*
X70735Y8943D01*
X71586Y8590D01*
X72000Y8536D01*
Y11500D01*
D02*
G37*
G36*
X73000Y15464D02*
Y12500D01*
X75964D01*
X75910Y12914D01*
X75557Y13765D01*
X74996Y14496D01*
X74265Y15057D01*
X73414Y15410D01*
X73000Y15464D01*
D02*
G37*
G36*
X132000Y16421D02*
X131468Y16351D01*
X130507Y15953D01*
X129681Y15319D01*
X129047Y14493D01*
X128649Y13532D01*
X128579Y13000D01*
X132000D01*
Y16421D01*
D02*
G37*
G36*
X133000D02*
Y13000D01*
X136421D01*
X136351Y13532D01*
X135953Y14493D01*
X135319Y15319D01*
X134493Y15953D01*
X133532Y16351D01*
X133000Y16421D01*
D02*
G37*
G36*
X72000Y15464D02*
X71586Y15410D01*
X70735Y15057D01*
X70004Y14496D01*
X69443Y13765D01*
X69090Y12914D01*
X69036Y12500D01*
X72000D01*
Y15464D01*
D02*
G37*
G36*
X30553Y16053D02*
X23447D01*
Y8947D01*
X30553D01*
Y16053D01*
D02*
G37*
G36*
X45500Y15464D02*
X45086Y15410D01*
X44235Y15057D01*
X43504Y14496D01*
X42943Y13765D01*
X42590Y12914D01*
X42536Y12500D01*
X45500D01*
Y15464D01*
D02*
G37*
G36*
X46500D02*
Y12500D01*
X49464D01*
X49410Y12914D01*
X49057Y13765D01*
X48496Y14496D01*
X47765Y15057D01*
X46914Y15410D01*
X46500Y15464D01*
D02*
G37*
G36*
X99000Y57141D02*
X98181Y56978D01*
X97486Y56514D01*
X97022Y55819D01*
X96859Y55000D01*
X97022Y54181D01*
X97486Y53486D01*
X97624Y53394D01*
Y32680D01*
X94107Y29164D01*
X93945Y29196D01*
X93125Y29033D01*
X92431Y28569D01*
X91967Y27874D01*
X91804Y27055D01*
X91967Y26236D01*
X92431Y25541D01*
X93125Y25077D01*
X93945Y24914D01*
X94764Y25077D01*
X95459Y25541D01*
X95923Y26236D01*
X96086Y27055D01*
X96054Y27217D01*
X99973Y31137D01*
X100272Y31583D01*
X100376Y32110D01*
X100376Y32110D01*
X100376Y32110D01*
Y32110D01*
Y53394D01*
X100514Y53486D01*
X100978Y54181D01*
X101141Y55000D01*
X100978Y55819D01*
X100514Y56514D01*
X99819Y56978D01*
X99000Y57141D01*
D02*
G37*
G36*
X79161Y65661D02*
X77212D01*
X77306Y65186D01*
X77859Y64359D01*
X78686Y63806D01*
X79161Y63712D01*
Y65661D01*
D02*
G37*
G36*
X82111D02*
X80161D01*
Y63712D01*
X80637Y63806D01*
X81464Y64359D01*
X82016Y65186D01*
X82111Y65661D01*
D02*
G37*
G36*
X79161Y68611D02*
X78686Y68516D01*
X77859Y67964D01*
X77306Y67137D01*
X77212Y66661D01*
X79161D01*
Y68611D01*
D02*
G37*
G36*
X132500Y68583D02*
X131573Y68461D01*
X130708Y68103D01*
X129966Y67534D01*
X129397Y66792D01*
X129039Y65927D01*
X128917Y65000D01*
X129039Y64073D01*
X129397Y63208D01*
X129966Y62466D01*
X130708Y61897D01*
X131573Y61539D01*
X132500Y61417D01*
X133427Y61539D01*
X134292Y61897D01*
X135034Y62466D01*
X135603Y63208D01*
X135961Y64073D01*
X136083Y65000D01*
X135961Y65927D01*
X135603Y66792D01*
X135034Y67534D01*
X134292Y68103D01*
X133427Y68461D01*
X132500Y68583D01*
D02*
G37*
G36*
X132000Y58953D02*
X128547D01*
Y55500D01*
X132000D01*
Y58953D01*
D02*
G37*
G36*
X136453D02*
X133000D01*
Y55500D01*
X136453D01*
Y58953D01*
D02*
G37*
G36*
X9500Y68583D02*
X8573Y68461D01*
X7708Y68103D01*
X6966Y67534D01*
X6397Y66792D01*
X6039Y65927D01*
X5917Y65000D01*
X6039Y64073D01*
X6397Y63208D01*
X6966Y62466D01*
X7708Y61897D01*
X8573Y61539D01*
X9500Y61417D01*
X10428Y61539D01*
X11292Y61897D01*
X12034Y62466D01*
X12603Y63208D01*
X12961Y64073D01*
X13083Y65000D01*
X12961Y65927D01*
X12603Y66792D01*
X12034Y67534D01*
X11292Y68103D01*
X10428Y68461D01*
X9500Y68583D01*
D02*
G37*
G36*
X62000Y80083D02*
X61073Y79961D01*
X60208Y79603D01*
X59466Y79034D01*
X58897Y78292D01*
X58539Y77427D01*
X58417Y76500D01*
X58539Y75573D01*
X58897Y74708D01*
X59466Y73966D01*
X60208Y73397D01*
X61073Y73039D01*
X62000Y72917D01*
X62927Y73039D01*
X63792Y73397D01*
X64534Y73966D01*
X65103Y74708D01*
X65461Y75573D01*
X65583Y76500D01*
X65461Y77427D01*
X65103Y78292D01*
X64534Y79034D01*
X63792Y79603D01*
X62927Y79961D01*
X62000Y80083D01*
D02*
G37*
G36*
X45553Y80053D02*
X38447D01*
Y72947D01*
X45553D01*
Y80053D01*
D02*
G37*
G36*
X6500Y75450D02*
Y73500D01*
X8450D01*
X8355Y73975D01*
X7802Y74802D01*
X6975Y75355D01*
X6500Y75450D01*
D02*
G37*
G36*
X52000Y80083D02*
X51073Y79961D01*
X50208Y79603D01*
X49466Y79034D01*
X48897Y78292D01*
X48539Y77427D01*
X48417Y76500D01*
X48539Y75573D01*
X48897Y74708D01*
X49466Y73966D01*
X50208Y73397D01*
X51073Y73039D01*
X52000Y72917D01*
X52927Y73039D01*
X53792Y73397D01*
X54534Y73966D01*
X55103Y74708D01*
X55461Y75573D01*
X55583Y76500D01*
X55461Y77427D01*
X55103Y78292D01*
X54534Y79034D01*
X53792Y79603D01*
X52927Y79961D01*
X52000Y80083D01*
D02*
G37*
G36*
X80161Y68611D02*
Y66661D01*
X82111D01*
X82016Y67137D01*
X81464Y67964D01*
X80637Y68516D01*
X80161Y68611D01*
D02*
G37*
G36*
X8450Y72500D02*
X6500D01*
Y70551D01*
X6975Y70645D01*
X7802Y71198D01*
X8355Y72025D01*
X8450Y72500D01*
D02*
G37*
G36*
X132500Y78583D02*
X131573Y78461D01*
X130708Y78103D01*
X129966Y77534D01*
X129397Y76792D01*
X129039Y75927D01*
X128917Y75000D01*
X129039Y74073D01*
X129397Y73208D01*
X129966Y72466D01*
X130708Y71897D01*
X131573Y71539D01*
X132500Y71417D01*
X133427Y71539D01*
X134292Y71897D01*
X135034Y72466D01*
X135603Y73208D01*
X135961Y74073D01*
X136083Y75000D01*
X135961Y75927D01*
X135603Y76792D01*
X135034Y77534D01*
X134292Y78103D01*
X133427Y78461D01*
X132500Y78583D01*
D02*
G37*
G36*
X9000Y44500D02*
X5547D01*
Y41047D01*
X9000D01*
Y44500D01*
D02*
G37*
G36*
X13453D02*
X10000D01*
Y41047D01*
X13453D01*
Y44500D01*
D02*
G37*
G36*
X9000Y48953D02*
X5547D01*
Y45500D01*
X9000D01*
Y48953D01*
D02*
G37*
G36*
X64000Y42450D02*
Y40500D01*
X65949D01*
X65855Y40975D01*
X65302Y41802D01*
X64476Y42355D01*
X64000Y42450D01*
D02*
G37*
G36*
X63000Y39500D02*
X61050D01*
X61145Y39024D01*
X61698Y38198D01*
X62524Y37645D01*
X63000Y37551D01*
Y39500D01*
D02*
G37*
G36*
X65949D02*
X64000D01*
Y37551D01*
X64476Y37645D01*
X65302Y38198D01*
X65855Y39024D01*
X65949Y39500D01*
D02*
G37*
G36*
X63000Y42450D02*
X62524Y42355D01*
X61698Y41802D01*
X61145Y40975D01*
X61050Y40500D01*
X63000D01*
Y42450D01*
D02*
G37*
G36*
X13421Y54500D02*
X10000D01*
Y51079D01*
X10532Y51149D01*
X11493Y51547D01*
X12319Y52181D01*
X12953Y53007D01*
X13351Y53968D01*
X13421Y54500D01*
D02*
G37*
G36*
X9000Y58921D02*
X8468Y58851D01*
X7507Y58453D01*
X6681Y57819D01*
X6047Y56993D01*
X5649Y56032D01*
X5579Y55500D01*
X9000D01*
Y58921D01*
D02*
G37*
G36*
X10000D02*
Y55500D01*
X13421D01*
X13351Y56032D01*
X12953Y56993D01*
X12319Y57819D01*
X11493Y58453D01*
X10532Y58851D01*
X10000Y58921D01*
D02*
G37*
G36*
X9000Y54500D02*
X5579D01*
X5649Y53968D01*
X6047Y53007D01*
X6681Y52181D01*
X7507Y51547D01*
X8468Y51149D01*
X9000Y51079D01*
Y54500D01*
D02*
G37*
G36*
X13453Y48953D02*
X10000D01*
Y45500D01*
X13453D01*
Y48953D01*
D02*
G37*
G36*
X132000Y54500D02*
X128547D01*
Y51047D01*
X132000D01*
Y54500D01*
D02*
G37*
G36*
X136453D02*
X133000D01*
Y51047D01*
X136453D01*
Y54500D01*
D02*
G37*
%LPD*%
D16*
X93945Y27055D02*
X99000Y32110D01*
Y55000D01*
D19*
X9500Y22500D02*
D03*
X132500Y65000D02*
D03*
Y75000D02*
D03*
Y22500D02*
D03*
Y12500D02*
D03*
X27000Y22500D02*
D03*
X52000Y76500D02*
D03*
X62000D02*
D03*
X9500Y55000D02*
D03*
Y65000D02*
D03*
D20*
Y12500D02*
D03*
X132500Y55000D02*
D03*
Y32500D02*
D03*
X27000Y12500D02*
D03*
X9500Y45000D02*
D03*
D21*
X42000Y76500D02*
D03*
D22*
X6000Y73000D02*
D03*
X79661Y66161D02*
D03*
X63500Y40000D02*
D03*
X99000Y55000D02*
D03*
X93945Y27055D02*
D03*
D23*
X98000Y21000D02*
D03*
X46000Y12000D02*
D03*
X72500D02*
D03*
M02*
