%FSLAX25Y25*%
%MOIN*%
G70*
G01*
G75*
G04 Layer_Color=8388736*
%ADD10R,0.06312X0.12611*%
%ADD11R,0.10249X0.04737*%
%ADD12R,0.05131X0.07493*%
%ADD13R,0.04737X0.06706*%
%ADD14O,0.09461X0.03162*%
%ADD15R,0.07493X0.05131*%
%ADD16C,0.06706*%
%ADD17R,0.06706X0.06706*%
%ADD18R,0.06706X0.06706*%
%ADD19C,0.03800*%
%ADD20C,0.05800*%
D10*
X79000Y8945D02*
D03*
Y27055D02*
D03*
X52500Y8945D02*
D03*
Y27055D02*
D03*
D11*
X119193Y51000D02*
D03*
X105807D02*
D03*
X114193Y13500D02*
D03*
X100807D02*
D03*
X39193Y62000D02*
D03*
X25807D02*
D03*
D12*
X31815Y78500D02*
D03*
X21185D02*
D03*
D13*
X14831Y78500D02*
D03*
X6169D02*
D03*
X114331Y33000D02*
D03*
X105669D02*
D03*
X70831Y64000D02*
D03*
X62169D02*
D03*
X71000Y78500D02*
D03*
X79661D02*
D03*
X79661Y71500D02*
D03*
X71000D02*
D03*
X105669Y25500D02*
D03*
X114331D02*
D03*
X39669Y41500D02*
D03*
X48331D02*
D03*
X48331Y50000D02*
D03*
X39669D02*
D03*
D14*
X73051Y55000D02*
D03*
Y50000D02*
D03*
Y45000D02*
D03*
Y40000D02*
D03*
X91949Y55000D02*
D03*
Y50000D02*
D03*
Y45000D02*
D03*
Y40000D02*
D03*
D15*
X56500Y51315D02*
D03*
Y40685D02*
D03*
D16*
X9500Y22500D02*
D03*
X132500Y65000D02*
D03*
Y75000D02*
D03*
Y22500D02*
D03*
Y12500D02*
D03*
X27000Y22500D02*
D03*
X52000Y76500D02*
D03*
X62000D02*
D03*
X9500Y55000D02*
D03*
Y65000D02*
D03*
D17*
Y12500D02*
D03*
X132500Y55000D02*
D03*
Y32500D02*
D03*
X27000Y12500D02*
D03*
X9500Y45000D02*
D03*
D18*
X42000Y76500D02*
D03*
D19*
X6000Y73000D02*
D03*
X79661Y66161D02*
D03*
X63500Y40000D02*
D03*
X99000Y55000D02*
D03*
X93945Y27055D02*
D03*
D20*
X98000Y21000D02*
D03*
X46000Y12000D02*
D03*
X72500D02*
D03*
M02*
