M48
;Layer_Color=9474304
;FILE_FORMAT=2:5
INCH,LZ
;TYPE=PLATED
T1F00S00C0.01500
T2F00S00C0.02800
T3F00S00C0.03543
%
T01
X00635Y004
X0079661Y0066161
X0099Y0055
X0093945Y0027055
X0006Y0073
T02
X0046Y0012
X00725
X0098Y0021
T03
X0027Y00125
Y00225
X0042Y00765
X0052
X0062
X01325Y0075
Y0065
Y0055
Y00325
Y00225
Y00125
X00095
Y00225
Y0045
Y0055
Y0065
M30
